<?xml version="1.0" standalone="no"?>
<!DOCTYPE svg PUBLIC "-//W3C//DTD SVG 20010904//EN"
 "http://www.w3.org/TR/2001/REC-SVG-20010904/DTD/svg10.dtd">
<svg version="1.0" xmlns="http://www.w3.org/2000/svg"
 width="850.000000pt" height="850.000000pt" viewBox="0 0 850.000000 850.000000"
 preserveAspectRatio="xMidYMid meet">
<metadata>
Created by potrace 1.13, written by Peter Selinger 2001-2015
</metadata>
<g transform="translate(0.000000,850.000000) scale(0.100000,-0.100000)"
fill="#000000" stroke="none">
<path d="M3991 8219 c-1305 -79 -2514 -821 -3180 -1953 -52 -88 -149 -276
-148 -286 0 -3 -7 -17 -17 -32 -49 -75 -184 -435 -242 -648 -162 -589 -184
-1223 -64 -1820 210 -1045 800 -1923 1700 -2533 101 -68 115 -75 118 -58 2 11
16 31 32 45 29 24 55 31 210 61 47 9 91 22 99 28 10 9 12 28 7 79 -3 36 -2 78
4 92 l10 26 142 0 c79 0 153 -3 165 -6 30 -8 34 -39 21 -209 -8 -113 -8 -161
1 -193 12 -42 41 -82 61 -82 17 0 31 40 36 108 9 126 15 152 39 180 24 29 24
31 27 298 2 148 7 275 11 282 6 9 68 12 253 12 l244 0 0 -82 c0 -46 4 -89 8
-95 11 -17 73 -24 90 -11 6 6 12 32 12 58 0 28 6 52 14 59 9 8 60 11 157 9
l144 -3 0 -45 0 -45 147 -3 146 -3 8 -42 c5 -23 7 -144 6 -269 l-2 -228 125 0
125 0 0 478 0 479 108 6 c59 4 123 3 142 -1 l35 -8 5 -289 5 -289 40 -9 c45
-10 194 -5 213 7 9 5 12 52 12 167 l0 159 235 0 235 0 0 -120 0 -120 145 0
145 0 0 -58 c0 -75 17 -101 54 -84 15 7 35 12 46 12 30 0 35 48 32 308 l-2
242 150 0 150 0 0 -65 0 -65 220 0 220 0 0 450 0 450 148 0 c81 0 157 -3 170
-6 22 -6 22 -9 22 -170 l0 -164 26 -10 c28 -11 176 -13 212 -4 22 6 22 8 22
180 l0 174 133 0 134 0 -1 -46 c-1 -58 15 -71 86 -68 70 3 68 2 68 17 0 8 13
32 30 55 21 30 41 44 72 54 24 6 46 17 50 23 33 46 152 363 203 540 227 786
215 1587 -35 2350 -211 643 -570 1205 -1063 1664 -108 101 -310 271 -321 271
-3 0 -6 -16 -6 -35 0 -99 -147 -117 -166 -20 -8 42 6 66 50 90 20 11 36 22 36
26 0 3 -28 25 -61 49 -51 36 -65 41 -78 31 -9 -6 -38 -23 -66 -36 -117 -58
-280 -5 -316 103 -11 34 -8 122 5 153 5 12 -16 27 -103 67 -611 287 -1270 412
-1950 371z m304 -1143 c88 -40 130 -106 165 -258 26 -113 22 -153 -18 -190
-38 -35 -71 -46 -197 -63 -206 -28 -380 -67 -675 -150 -269 -75 -618 -193
-804 -270 l-38 -16 5 -87 c3 -48 10 -175 17 -282 6 -107 13 -201 15 -207 3 -7
19 -13 37 -13 43 0 205 -28 241 -42 41 -16 51 -50 36 -126 -7 -34 -19 -68 -26
-74 -10 -8 -43 -8 -126 2 -62 7 -121 11 -132 9 -19 -4 -20 -11 -17 -244 3
-221 2 -251 -22 -385 -29 -169 -48 -228 -116 -365 -61 -124 -184 -266 -333
-387 -115 -92 -197 -135 -290 -151 -174 -29 -415 106 -476 268 -31 79 -51 217
-51 340 0 107 29 335 56 444 22 88 42 126 136 258 73 102 143 174 224 230 27
19 291 157 316 165 12 4 24 418 12 418 -11 0 -207 -106 -272 -147 -31 -20 -93
-59 -137 -88 -161 -105 -190 -109 -253 -41 -42 46 -59 96 -47 138 28 92 235
274 554 489 l155 104 1 155 c0 151 1 157 29 210 36 70 191 221 263 256 100 49
184 28 199 -52 3 -17 0 -91 -6 -163 -7 -73 -10 -134 -7 -138 3 -3 91 31 194
75 417 177 764 288 1238 395 49 11 103 5 150 -17z m17 -757 c69 -15 107 -35
117 -62 20 -53 -31 -274 -91 -397 -31 -63 -62 -104 -115 -158 -94 -97 -106
-95 -115 17 -4 46 -12 89 -18 95 -7 7 -71 11 -183 11 -178 0 -298 -17 -377
-53 l-35 -16 35 -4 c22 -2 56 -20 95 -51 33 -27 119 -88 190 -136 322 -218
431 -332 485 -504 38 -120 21 -280 -43 -410 -40 -82 -156 -201 -247 -254 -133
-77 -298 -113 -480 -104 -214 10 -362 91 -433 237 -30 62 -50 181 -41 243 14
91 103 203 200 251 53 27 189 54 217 43 10 -4 18 -25 22 -64 23 -187 130 -356
252 -397 67 -23 132 -20 184 7 117 62 120 187 7 293 -60 56 -88 76 -288 198
-293 180 -408 278 -461 390 -27 57 -29 70 -29 181 0 216 28 312 112 391 94 88
386 205 612 245 117 20 348 25 428 8z m3174 -188 c35 -21 61 -92 49 -132 -17
-56 -80 -99 -145 -99 -84 0 -137 56 -127 133 6 41 45 92 82 107 36 16 109 11
141 -9z m-724 -381 c20 -25 24 -90 8 -121 -15 -26 -62 -49 -104 -49 -50 0 -96
41 -96 85 0 81 42 118 124 111 36 -2 55 -9 68 -26z m-1634 -611 c70 -24 77
-85 32 -271 -16 -67 -30 -130 -30 -139 0 -14 18 -11 128 23 312 95 690 186
1012 242 233 41 629 88 691 83 101 -9 182 -66 228 -159 28 -58 54 -247 41
-301 -18 -80 -88 -117 -225 -117 -275 0 -876 -80 -1386 -185 -155 -32 -569
-133 -577 -140 -4 -3 -17 -101 -26 -195 -3 -30 -17 -170 -30 -310 -43 -436
-56 -655 -71 -1169 -5 -197 -10 -211 -78 -242 -81 -36 -173 -16 -210 48 -43
76 -77 570 -93 1366 -4 185 -10 337 -15 337 -11 0 -262 -93 -344 -128 -38 -16
-133 -59 -210 -95 -183 -85 -215 -94 -262 -70 -81 40 -125 142 -90 210 48 91
315 264 693 449 l231 113 7 98 c9 134 31 229 64 283 30 49 210 192 292 232 91
44 171 57 228 37z m2752 -297 c40 -33 27 -113 -22 -138 -65 -33 -147 14 -134
78 12 61 31 78 85 78 32 0 56 -6 71 -18z m-160 -354 c30 -15 75 -45 99 -66
l44 -38 -11 -130 c-23 -251 -15 -555 28 -1019 23 -243 30 -222 -83 -257 -172
-52 -293 18 -351 201 -40 125 -49 231 -42 461 3 113 9 229 12 259 l7 54 -43
-24 c-122 -69 -181 -236 -200 -564 -5 -93 -6 -248 -3 -345 l6 -176 -32 -26
c-34 -29 -88 -48 -136 -48 -57 0 -106 13 -115 30 -16 30 -58 258 -74 400 -17
153 -32 388 -46 729 l-9 235 24 32 c14 18 54 47 90 65 53 26 80 32 154 37 156
8 171 -6 150 -145 -7 -46 -10 -86 -7 -89 4 -3 24 11 46 31 29 26 52 63 82 133
84 191 123 251 185 279 49 22 160 13 225 -19z m-6496 -309 c36 -29 56 -70 56
-119 0 -32 -7 -48 -32 -75 -37 -39 -107 -62 -152 -51 -62 15 -108 96 -92 160
22 86 154 137 220 85z m1910 -100 c22 -21 13 -243 -20 -487 -8 -64 -24 -182
-34 -262 -52 -393 -49 -589 15 -1107 18 -153 37 -312 41 -354 l7 -76 -33 -12
c-18 -6 -63 -11 -100 -11 -95 0 -184 45 -290 148 -174 169 -418 433 -477 517
l-63 88 0 -45 c0 -53 14 -106 111 -423 71 -232 74 -244 74 -343 0 -103 0 -104
-31 -131 -39 -36 -90 -45 -160 -31 -148 31 -261 260 -373 760 -22 96 -60 263
-85 370 -81 352 -114 598 -101 758 6 78 9 84 39 107 101 77 230 99 321 55 105
-51 203 -172 345 -425 40 -71 96 -166 125 -210 63 -94 148 -184 153 -161 2 8
-4 86 -12 173 -45 457 -26 725 64 902 50 101 98 146 199 188 49 21 69 23 168
21 61 -2 114 -6 117 -9z m3133 -28 c30 -15 171 -116 239 -171 18 -14 62 -155
81 -260 23 -130 23 -402 -1 -525 -54 -283 -155 -454 -312 -527 -57 -27 -78
-31 -143 -31 -97 1 -149 15 -202 56 -87 66 -138 174 -164 347 -50 327 48 808
212 1032 34 48 81 83 131 99 39 12 115 3 159 -20z m-662 -13 c24 -11 25 -15
20 -57 -10 -74 -35 -197 -66 -331 -59 -250 -62 -284 -64 -695 -2 -440 -7 -478
-65 -507 -19 -9 -56 -17 -81 -18 -59 0 -72 18 -104 143 -54 218 -80 510 -72
837 11 469 69 585 307 625 98 17 95 17 125 3z m-4078 -257 c24 -35 30 -94 14
-120 -12 -19 -57 -18 -103 2 -42 18 -47 36 -24 90 31 74 75 85 113 28z m2792
-176 c35 -20 50 -33 47 -44 -11 -37 -27 -134 -42 -241 -13 -89 -17 -238 -21
-652 l-5 -536 -21 -6 c-42 -11 -92 -6 -123 13 -38 23 -80 105 -90 174 l-7 49
-44 -44 c-25 -23 -74 -81 -108 -129 -90 -121 -150 -174 -219 -194 -198 -58
-344 113 -428 500 -19 87 -22 131 -23 335 0 243 5 289 47 420 30 95 64 156
115 211 60 65 120 93 198 93 74 -1 121 -23 202 -97 67 -62 130 -107 150 -107
10 0 12 8 8 33 -14 71 30 173 91 213 79 52 187 55 273 9z m-2842 -1111 c32
-34 38 -84 19 -142 -31 -92 -107 -127 -176 -80 -116 79 -103 210 25 243 63 16
104 10 132 -21z"/>
<path d="M2152 5125 c-57 -51 -118 -138 -145 -205 -38 -98 -73 -292 -83 -463
-10 -177 22 -287 89 -305 59 -17 82 11 117 144 33 128 64 365 80 619 12 197
13 255 1 255 -5 0 -31 -20 -59 -45z"/>
<path d="M6212 3578 c-72 -216 -92 -307 -92 -421 0 -95 19 -167 56 -212 l25
-30 30 35 c43 50 77 120 101 208 25 94 30 341 9 437 -16 73 -50 165 -60 165
-4 0 -35 -82 -69 -182z"/>
<path d="M3701 3204 c-62 -52 -76 -183 -42 -386 20 -116 73 -308 112 -411 21
-54 24 -58 48 -52 77 19 151 104 175 202 31 123 30 212 -5 483 -11 82 -14 91
-36 96 -13 4 -49 26 -80 50 -70 54 -123 60 -172 18z"/>
</g>
</svg>
